<svg id="Layer_1" data-name="Layer 1" xmlns="http://www.w3.org/2000/svg" viewBox="0 0 2338.08 493.02"><defs><style>.cls-1{fill:red;}.cls-2{fill:#fff;}</style></defs><path class="cls-1" d="M870.08,299.88a25.09,25.09,0,1,1,43.24,25.46c-.36.6-.73,1.19-1.13,1.75a25.09,25.09,0,0,1-42.11-27.21Z"/><path class="cls-1" d="M935.5,340.6l-23.31-13.51,2.63-4.3L938,336.41"/><path class="cls-1" d="M938,336.41a13.34,13.34,0,0,0,2-7.58,14.11,14.11,0,0,0-5.2-10Q959,331.81,984,346.8a1135.57,1135.57,0,0,1,140.61,99.92,871,871,0,0,1-156.51-70c-17.1-9.78-33.23-19.79-48.42-29.86.58.27,5.61,2.52,10.61-.19a11.77,11.77,0,0,0,5.25-6"/><path class="cls-1" d="M891.25,262.35l0,26.94-5.05-.13.23-26.85a13.38,13.38,0,0,0-7.56,2.05,14.07,14.07,0,0,0-6.05,9.5q-.87-27.44-.39-56.58A1136,1136,0,0,1,888.62,45.54a871,871,0,0,1,17.61,170.57c.07,19.69-.53,38.66-1.65,56.85-.06-.63-.63-6.11-5.47-9.09A11.72,11.72,0,0,0,891.25,262.35Z"/><path class="cls-1" d="M848.33,333.46,871.68,320l2.42,4.43-23.37,13.23a13.47,13.47,0,0,0,5.55,5.53,14.1,14.1,0,0,0,11.26.48q-23.32,14.48-48.81,28.63a1136,1136,0,0,1-156.84,71.81A871.47,871.47,0,0,1,800.8,343.61c17-9.91,33.75-18.88,50.06-27-.52.37-5,3.6-5.14,9.28A11.77,11.77,0,0,0,848.33,333.46Z"/><circle class="cls-2" cx="891.7" cy="312.61" r="19.76"/><path d="M76.35,311a110.07,110.07,0,0,1-23.71-7.8,90.89,90.89,0,0,1-19.85-12.36L48.9,262.13a77.85,77.85,0,0,0,24.6,13.51,88.22,88.22,0,0,0,28.66,4.75q17,0,26.37-5.77t9.38-16.29v-.13q0-7.35-4.18-11.66a24.8,24.8,0,0,0-10.91-6.34,132.79,132.79,0,0,0-17.24-3.68,2.37,2.37,0,0,0-.7-.13,2.39,2.39,0,0,1-.7-.12l-2.79-.39Q82.88,233,70.71,228.59A45.1,45.1,0,0,1,50,213.25q-8.49-11-8.5-31.13V182q0-17.87,8-30.55T72.74,132.1q15.21-6.66,36.77-6.66a93.7,93.7,0,0,1,20.22,2.28,109.91,109.91,0,0,1,20.23,6.6,112.65,112.65,0,0,1,18.77,10.4L154,174.13a93.48,93.48,0,0,0-22.26-11.41,67.44,67.44,0,0,0-22.25-4.06q-16,0-24.73,5.27T76,178.7v.12q0,8,4.57,12.62a27.07,27.07,0,0,0,11.28,6.78,179.24,179.24,0,0,0,18.9,4.57,8.56,8.56,0,0,0,1,.19,9.13,9.13,0,0,1,1,.19c.5.09,1,.19,1.45.32s1,.23,1.46.31q17.5,3.44,29.23,8.31a45.59,45.59,0,0,1,19.59,15.72q7.86,10.85,7.86,29.61v.25q0,17.64-8.24,30.18t-24,19.15q-15.78,6.6-38,6.59A124.28,124.28,0,0,1,76.35,311Z"/><path d="M225.47,306.7a47.23,47.23,0,0,1-20.61-20.16q-7.1-13.25-7.1-31.89V239.82q0-19.53,6.79-33.35a47.19,47.19,0,0,1,19.78-21.05q13-7.23,31.38-7.23,17.25,0,29.55,8.62T304,211.86q6.41,16.41,6.4,39.62v8.62h-90V236.65h58.33l-.38-3.05q-1.39-11.41-7.16-17.62t-15.41-6.22q-12.56,0-19.46,7.49t-6.91,21.17v16.74q0,13.44,7.54,20.79T258,283.31a40.6,40.6,0,0,0,13.82-2.47,42.08,42.08,0,0,0,12.43-7L306.94,294a75.83,75.83,0,0,1-23.08,14.52A69.06,69.06,0,0,1,258,313.61Q239,313.61,225.47,306.7Z"/><path d="M340.79,180.09h37.28V311.71H340.79Zm67.84,32.84a26.15,26.15,0,0,0-8.49-1.26q-10.53,0-16.3,6.78t-5.77,18.83L375.41,203q5.44-11.79,14.14-18.32a31.06,31.06,0,0,1,19.08-6.53,40.72,40.72,0,0,1,14.9,2.6,32.44,32.44,0,0,1,11.6,7.67l-20.28,28.28A16.21,16.21,0,0,0,408.63,212.93Z"/><path d="M451.62,180.09h34.74V311.71H451.62ZM527.7,232q0-9.63-5.52-15t-15.66-5.32q-9.63,0-14.9,5.39t-5.26,15.15L483.7,203q6-12.42,14.26-18.64t20.86-6.21q20.8,0,32.21,14t11.41,39.63v79.88H527.7Z"/><path d="M620.58,306.7A47.15,47.15,0,0,1,600,286.54q-7.11-13.25-7.1-31.89V239.82q0-19.53,6.78-33.35a47.19,47.19,0,0,1,19.78-21.05q13-7.23,31.38-7.23,17.25,0,29.55,8.62t18.7,25.05q6.4,16.41,6.4,39.62v8.62h-90V236.65h58.32l-.38-3.05Q672,222.19,666.23,216t-15.41-6.22q-12.55,0-19.46,7.49t-6.91,21.17v16.74q0,13.44,7.54,20.79t21.12,7.36a40.69,40.69,0,0,0,13.82-2.47,42.15,42.15,0,0,0,12.42-7L702.05,294A75.83,75.83,0,0,1,679,308.48a69.05,69.05,0,0,1-25.86,5.13Q634.09,313.61,620.58,306.7Z"/><path d="M766,239.06l20.67,23.83-30.31,48.82h-36.9Zm6.34,18.25-50.85-77.22h38.29l31.58,53.13,51.61,78.49H804.76Zm6-30.55,24.34-46.67h38.3l-42.23,71Z"/><path d="M926,180.09H990.4v29.67H926ZM947.6,303.53q-8.05-8.8-8.05-26V141.8h34.74V268.85c0,3.22.64,5.69,1.9,7.42a6.49,6.49,0,0,0,5.58,2.6h8.63v33.48H972.9Q955.65,312.35,947.6,303.53Z"/><path d="M1044.73,306.7a47.23,47.23,0,0,1-20.61-20.16q-7.09-13.25-7.1-31.89V239.82q0-19.53,6.79-33.35a47.19,47.19,0,0,1,19.78-21.05q13-7.23,31.38-7.23,17.25,0,29.55,8.62t18.7,25.05q6.4,16.41,6.4,39.62v8.62h-90V236.65h58.33l-.38-3.05q-1.39-11.41-7.16-17.62T1075,209.76q-12.56,0-19.46,7.49t-6.91,21.17v16.74q0,13.44,7.54,20.79t21.11,7.36a40.7,40.7,0,0,0,13.83-2.47,42.15,42.15,0,0,0,12.42-7L1126.2,294a75.83,75.83,0,0,1-23.08,14.52,69.06,69.06,0,0,1-25.87,5.13Q1058.23,313.61,1044.73,306.7Z"/><path d="M1183.58,306.45a47.62,47.62,0,0,1-20.36-20.86q-7-13.69-7-33V238.55q0-19.16,7-32.65a47.46,47.46,0,0,1,20.36-20.61q13.37-7.09,32.14-7.1a81.05,81.05,0,0,1,20.35,2.47,62.07,62.07,0,0,1,17.18,7.17,45.7,45.7,0,0,1,12.68,11.41l-22.44,21.81a34.73,34.73,0,0,0-11.29-6.91,37.6,37.6,0,0,0-13.56-2.47q-13.2,0-20.42,7T1191,238.55v14.07q0,13.2,7.23,20.35t20.42,7.17a35.68,35.68,0,0,0,13.69-2.66,32.16,32.16,0,0,0,11.16-7.61L1265.93,293a47.74,47.74,0,0,1-12.8,11.22,62.1,62.1,0,0,1-17.12,7,82.24,82.24,0,0,1-20.29,2.41Q1197,313.61,1183.58,306.45Z"/><path d="M1289.39,127.34h34.74V311.71h-34.74ZM1365.47,232q0-9.63-5.51-15t-15.66-5.32q-9.65,0-14.9,5.39t-5.27,15.15L1321.47,203q6-12.42,14.27-18.64t20.86-6.21q20.79,0,32.2,14t11.42,39.63v79.88h-34.75Z"/></svg>