<svg id="Layer_1" data-name="Layer 1" xmlns="http://www.w3.org/2000/svg" viewBox="0 0 1440 450.31"><defs><style>.cls-1{fill:red;}.cls-2{fill:#fff;}</style></defs><path class="cls-1" d="M870.08,279.74a25.09,25.09,0,1,1,43.24,25.46c-.36.61-.73,1.19-1.13,1.76a25.09,25.09,0,0,1-42.11-27.22Z"/><path class="cls-1" d="M935.5,320.46,912.19,307l2.63-4.31L938,316.27"/><path class="cls-1" d="M938,316.27a13.3,13.3,0,0,0,2-7.57,14.12,14.12,0,0,0-5.2-10q24.19,13,49.19,28a1136.64,1136.64,0,0,1,140.61,99.93,871.78,871.78,0,0,1-156.51-70c-17.1-9.78-33.23-19.78-48.42-29.85.58.26,5.61,2.51,10.61-.19a11.78,11.78,0,0,0,5.25-6.05"/><path class="cls-1" d="M891.25,242.21l0,26.94-5.05-.13.23-26.85a13.38,13.38,0,0,0-7.56,2.05,14.07,14.07,0,0,0-6.05,9.5q-.87-27.43-.39-56.58A1136,1136,0,0,1,888.62,25.41,870.89,870.89,0,0,1,906.23,196c.07,19.7-.53,38.67-1.65,56.86-.06-.64-.63-6.12-5.47-9.09A11.81,11.81,0,0,0,891.25,242.21Z"/><path class="cls-1" d="M848.33,313.32l23.35-13.43,2.42,4.44-23.37,13.22a13.36,13.36,0,0,0,5.55,5.53,14.17,14.17,0,0,0,11.26.49Q844.22,338,818.73,352.2A1134.71,1134.71,0,0,1,661.89,424,871.46,871.46,0,0,1,800.8,323.48c17-9.92,33.75-18.89,50.06-27a12.3,12.3,0,0,0-5.14,9.27A11.75,11.75,0,0,0,848.33,313.32Z"/><circle class="cls-2" cx="891.7" cy="292.47" r="19.76"/><path d="M76.35,290.82A111.18,111.18,0,0,1,52.64,283a91.3,91.3,0,0,1-19.85-12.37L48.9,242a78,78,0,0,0,24.6,13.5,88.23,88.23,0,0,0,28.66,4.76q17,0,26.37-5.77t9.38-16.3v-.12c0-4.91-1.39-8.79-4.18-11.67a24.9,24.9,0,0,0-10.91-6.34,132.79,132.79,0,0,0-17.24-3.68,2.34,2.34,0,0,0-.7-.12,2.43,2.43,0,0,1-.7-.13l-2.79-.38q-18.51-2.91-30.68-7.29A45.17,45.17,0,0,1,50,193.12q-8.49-11-8.5-31.13v-.13q0-17.88,8-30.56T72.74,112q15.21-6.66,36.77-6.65a93.7,93.7,0,0,1,20.22,2.28A109.87,109.87,0,0,1,150,114.18a113.38,113.38,0,0,1,18.77,10.4L154,154a93.11,93.11,0,0,0-22.26-11.41,67.18,67.18,0,0,0-22.25-4.06q-16,0-24.73,5.26T76,158.56v.13q0,8,4.57,12.62a27.28,27.28,0,0,0,11.28,6.78,177.17,177.17,0,0,0,18.9,4.56,6.91,6.91,0,0,0,1,.19c.34,0,.68.11,1,.19.5.09,1,.19,1.45.32a13.48,13.48,0,0,0,1.46.32A154.32,154.32,0,0,1,145,192a45.54,45.54,0,0,1,19.59,15.73q7.86,10.83,7.86,29.61v.25q0,17.63-8.24,30.18t-24,19.14q-15.78,6.6-38,6.6A125,125,0,0,1,76.35,290.82Z"/><path d="M225.47,286.57a47.34,47.34,0,0,1-20.61-20.16q-7.1-13.26-7.1-31.89V219.68q0-19.53,6.79-33.35a47.25,47.25,0,0,1,19.78-21.05q13-7.23,31.38-7.23,17.25,0,29.55,8.63t18.7,25q6.41,16.42,6.4,39.63V240h-90V216.51h58.33l-.38-3q-1.39-11.41-7.16-17.63t-15.41-6.21q-12.56,0-19.46,7.48t-6.91,21.18V235q0,13.44,7.54,20.8T258,263.17a40.36,40.36,0,0,0,13.82-2.47,41.86,41.86,0,0,0,12.43-7l22.7,20.16a75.64,75.64,0,0,1-23.08,14.52A68.88,68.88,0,0,1,258,293.48Q239,293.48,225.47,286.57Z"/><path d="M340.79,160h37.28V291.58H340.79Zm67.84,32.84a25.88,25.88,0,0,0-8.49-1.27q-10.53,0-16.3,6.78t-5.77,18.83l-2.66-34.23q5.44-11.79,14.14-18.32a31,31,0,0,1,19.08-6.54,40.72,40.72,0,0,1,14.9,2.6,32.6,32.6,0,0,1,11.6,7.68L414.85,196.6A16.07,16.07,0,0,0,408.63,192.8Z"/><path d="M451.62,160h34.74V291.58H451.62Zm76.08,51.86q0-9.63-5.52-15t-15.66-5.33q-9.63,0-14.9,5.39t-5.26,15.15l-2.66-29.16q6-12.43,14.26-18.64t20.86-6.22q20.8,0,32.21,14t11.41,39.62v79.89H527.7Z"/><path d="M620.58,286.57A47.26,47.26,0,0,1,600,266.41q-7.11-13.26-7.1-31.89V219.68q0-19.53,6.78-33.35a47.25,47.25,0,0,1,19.78-21.05q13-7.23,31.38-7.23,17.25,0,29.55,8.63t18.7,25q6.4,16.42,6.4,39.63V240h-90V216.51h58.32l-.38-3q-1.39-11.41-7.16-17.63t-15.41-6.21q-12.55,0-19.46,7.48t-6.91,21.18V235q0,13.44,7.54,20.8t21.12,7.35a40.44,40.44,0,0,0,13.82-2.47,41.93,41.93,0,0,0,12.42-7l22.7,20.16A75.64,75.64,0,0,1,679,288.34a68.87,68.87,0,0,1-25.86,5.14Q634.09,293.48,620.58,286.57Z"/><path d="M766,218.92l20.67,23.84-30.31,48.82h-36.9Zm6.34,18.26L721.45,160h38.29l31.58,53.13,51.61,78.49H804.76Zm6-30.56L802.6,160h38.3l-42.23,71Z"/><path d="M926,160H990.4v29.67H926ZM947.6,283.4q-8.05-8.82-8.05-26.06V121.66h34.74V248.72c0,3.21.64,5.68,1.9,7.42a6.48,6.48,0,0,0,5.58,2.59h8.63v33.48H972.9Q955.65,292.21,947.6,283.4Z"/><path d="M1044.73,286.57a47.34,47.34,0,0,1-20.61-20.16q-7.09-13.26-7.1-31.89V219.68q0-19.53,6.79-33.35a47.25,47.25,0,0,1,19.78-21.05q13-7.23,31.38-7.23,17.25,0,29.55,8.63t18.7,25q6.4,16.42,6.4,39.63V240h-90V216.51h58.33l-.38-3q-1.39-11.41-7.16-17.63T1075,189.63q-12.56,0-19.46,7.48t-6.91,21.18V235q0,13.44,7.54,20.8t21.11,7.35a40.46,40.46,0,0,0,13.83-2.47,41.93,41.93,0,0,0,12.42-7l22.7,20.16a75.64,75.64,0,0,1-23.08,14.52,68.88,68.88,0,0,1-25.87,5.14Q1058.23,293.48,1044.73,286.57Z"/><path d="M1183.58,286.31a47.54,47.54,0,0,1-20.36-20.85q-7-13.69-7-33V218.41q0-19.14,7-32.65a47.44,47.44,0,0,1,20.36-20.6q13.37-7.11,32.14-7.11a81,81,0,0,1,20.35,2.48,62.36,62.36,0,0,1,17.18,7.16,45.7,45.7,0,0,1,12.68,11.41l-22.44,21.81A34.9,34.9,0,0,0,1232.2,194a37.6,37.6,0,0,0-13.56-2.47q-13.2,0-20.42,7T1191,218.41v14.08q0,13.19,7.23,20.35t20.42,7.16a35.49,35.49,0,0,0,13.69-2.66,32,32,0,0,0,11.16-7.61l22.44,23.08a47.4,47.4,0,0,1-12.8,11.22,62.12,62.12,0,0,1-17.12,7,82.72,82.72,0,0,1-20.29,2.41Q1197,293.48,1183.58,286.31Z"/><path d="M1289.39,107.21h34.74V291.58h-34.74Zm76.08,104.61q0-9.63-5.51-15t-15.66-5.33q-9.65,0-14.9,5.39t-5.27,15.15l-2.66-29.16q6-12.43,14.27-18.64t20.86-6.22q20.79,0,32.2,14t11.42,39.62v79.89h-34.75Z"/></svg>